<svg width="376" height="347" viewBox="0 0 376 347" fill="none" xmlns="http://www.w3.org/2000/svg">
<path d="M61.6116 269.592H60.874C60.5236 266.789 58.9929 265.388 56.3004 265.388H51.9482V286.116C51.9482 287.259 52.2617 288.016 52.9071 288.403C53.5895 288.809 54.53 288.993 55.7103 288.993V289.657H44.1289V288.993C45.4567 288.993 46.4156 288.772 47.0058 288.329C47.5959 287.85 47.891 287.001 47.891 285.821V265.388H43.2437C42.0634 265.388 41.0675 265.738 40.293 266.42C39.5 267.121 39.0574 268.172 38.9652 269.592H38.3013L38.4488 263.691H61.3903L61.6116 269.592Z" fill="#740405"/>
<path d="M73.7797 264.355H73.5584C72.2675 264.355 71.3454 264.613 70.7553 265.092C70.202 265.535 69.9438 266.347 69.9438 267.527V275.199H82.7055V267.453C82.7055 266.273 82.4104 265.461 81.8203 265.019C81.2302 264.576 80.3081 264.355 79.0909 264.355H78.8696V263.691H90.5248V264.355C89.197 264.355 88.238 264.576 87.6479 265.019C87.0578 265.461 86.7627 266.31 86.7627 267.527V285.895C86.7627 287.13 87.0578 287.96 87.6479 288.403C88.238 288.809 89.197 288.993 90.5248 288.993V289.657H78.8696V288.993C80.2343 288.993 81.2302 288.809 81.8203 288.403C82.4104 287.96 82.7055 287.112 82.7055 285.821V276.748H69.9438V285.821C69.9438 287.112 70.2389 287.96 70.829 288.403C71.4192 288.809 72.3966 288.993 73.7797 288.993V289.657H62.1245V288.993C63.4523 288.956 64.4113 288.735 65.0014 288.329C65.5916 287.886 65.8866 287.057 65.8866 285.821V267.453C65.8866 266.328 65.5916 265.535 65.0014 265.092C64.4113 264.613 63.4892 264.355 62.272 264.355H62.1245V263.691H73.7797V264.355Z" fill="#740405"/>
<path d="M94.496 284.641L104.16 262.584H104.823L115.003 286.042C115.391 286.928 115.759 287.591 116.11 288.034C116.442 288.44 116.792 288.698 117.143 288.846C117.53 288.956 118.065 288.993 118.765 288.993V289.657H108.069V288.993C108.991 288.993 109.692 288.827 110.135 288.477C110.577 288.145 110.799 287.702 110.799 287.149C110.799 286.669 110.614 286.079 110.282 285.378L108.364 280.952H97.8893L95.7501 285.895C95.4919 286.393 95.3812 286.835 95.3812 287.223C95.3812 288.403 96.3033 288.993 98.1844 288.993V289.657H90.6602V288.993C91.2872 288.901 91.8035 288.698 92.2093 288.403C92.5965 288.108 92.9469 287.702 93.242 287.149C93.574 286.614 93.9981 285.784 94.496 284.641ZM107.774 279.477L103.127 268.928L98.5532 279.477H107.774Z" fill="#740405"/>
<path d="M139.656 270.994C139.656 272.322 139.287 273.539 138.549 274.608C137.812 275.697 136.798 276.563 135.525 277.19C134.289 277.836 132.869 278.149 131.247 278.149C129.513 278.149 127.853 277.854 126.23 277.264V285.821C126.23 287.112 126.525 287.96 127.116 288.403C127.743 288.809 128.757 288.993 130.14 288.993V289.657H118.485V288.993C119.85 288.993 120.809 288.772 121.362 288.329C121.897 287.85 122.173 287.001 122.173 285.821V267.453C122.173 266.273 121.878 265.461 121.288 265.019C120.698 264.576 119.831 264.355 118.706 264.355H118.485V263.691H129.845C131.468 263.691 133.017 263.968 134.492 264.502C136.005 265 137.24 265.793 138.181 266.863C139.158 267.951 139.656 269.334 139.656 270.994ZM126.23 265.609V275.936C127.411 276.434 128.48 276.674 129.476 276.674C131.099 276.674 132.39 276.194 133.386 275.199C134.419 274.166 134.935 272.82 134.935 271.141C134.935 269.371 134.382 267.951 133.312 266.863C132.279 265.738 130.822 265.166 128.96 265.166C128.111 265.166 127.208 265.314 126.23 265.609Z" fill="#740405"/>
<path d="M139.328 284.641L148.991 262.584H149.655L159.835 286.042C160.222 286.928 160.591 287.591 160.941 288.034C161.273 288.44 161.624 288.698 161.974 288.846C162.361 288.956 162.896 288.993 163.597 288.993V289.657H152.901V288.993C153.823 288.993 154.524 288.827 154.966 288.477C155.409 288.145 155.63 287.702 155.63 287.149C155.63 286.669 155.446 286.079 155.114 285.378L153.196 280.952H142.721L140.582 285.895C140.323 286.393 140.213 286.835 140.213 287.223C140.213 288.403 141.135 288.993 143.016 288.993V289.657H135.492V288.993C136.119 288.901 136.635 288.698 137.041 288.403C137.428 288.108 137.778 287.702 138.074 287.149C138.405 286.614 138.83 285.784 139.328 284.641ZM152.606 279.477L147.958 268.928L143.385 279.477H152.606Z" fill="#740405"/>
<path d="M184.709 270.477C184.709 272.063 184.156 273.428 183.086 274.608C181.998 275.752 180.357 276.582 178.144 277.117L184.119 284.567C184.857 285.452 185.465 286.171 185.963 286.706C186.498 287.259 187.143 287.739 187.881 288.182C188.619 288.624 189.43 288.901 190.315 288.993V289.657H183.603L173.792 277.485H171.284V285.895C171.284 287.038 171.542 287.85 172.095 288.329C172.685 288.772 173.589 288.993 174.824 288.993H174.972V289.657H163.612V288.993C164.829 288.993 165.751 288.772 166.341 288.329C166.931 287.886 167.226 287.13 167.226 286.042V267.232C167.226 266.254 166.931 265.535 166.341 265.092C165.751 264.613 164.829 264.355 163.612 264.355V263.691H175.783C178.236 263.691 180.32 264.263 182.054 265.388C183.824 266.476 184.709 268.172 184.709 270.477ZM171.284 265.683V276.231H172.243C174.788 276.231 176.705 275.752 177.996 274.756C179.324 273.723 179.988 272.322 179.988 270.551C179.988 269.039 179.49 267.73 178.513 266.642C177.517 265.572 176.115 265.019 174.308 265.019C173.312 265.019 172.316 265.24 171.284 265.683Z" fill="#740405"/>
<path d="M218.391 264.355C217.101 264.355 216.178 264.576 215.588 265.019C215.035 265.424 214.777 266.254 214.777 267.527V286.485C214.777 287.038 214.869 287.425 215.072 287.665C215.256 287.868 215.607 287.96 216.105 287.96H221.785C223.057 287.96 224.108 287.794 224.957 287.444C225.842 287.112 226.58 286.559 227.17 285.821C227.797 285.046 228.424 283.94 229.014 282.502L229.678 282.723L227.465 289.657H206.81V288.993H207.031C208.304 288.993 209.207 288.772 209.761 288.329C210.351 287.85 210.646 287.001 210.646 285.821V267.453C210.646 266.328 210.351 265.535 209.761 265.092C209.171 264.613 208.249 264.355 207.031 264.355H206.81V263.691H218.391V264.355Z" fill="#740405"/>
<path d="M250.92 269.445H250.256C249.997 268.025 249.536 266.974 248.854 266.273C248.153 265.59 247.231 265.24 246.051 265.24H237.789V275.199H244.576C245.756 275.199 246.586 274.904 247.084 274.313C247.618 273.723 247.895 272.764 247.895 271.436H248.559V280.584H247.895C247.895 279.256 247.637 278.297 247.157 277.707C246.66 277.08 245.774 276.748 244.502 276.748H237.789V286.19C237.789 287.518 238.305 288.182 239.338 288.182H245.977C247.342 288.182 248.559 287.776 249.592 286.928C250.661 286.042 251.528 284.788 252.174 283.165H252.985L250.92 289.657H229.97V288.993C231.298 288.993 232.257 288.772 232.847 288.329C233.437 287.886 233.732 287.057 233.732 285.821V267.232C233.732 266.254 233.437 265.535 232.847 265.092C232.257 264.613 231.298 264.355 229.97 264.355V263.691H250.551L250.92 269.445Z" fill="#740405"/>
<path d="M256.449 284.641L266.112 262.584H266.776L276.956 286.042C277.343 286.928 277.712 287.591 278.062 288.034C278.394 288.44 278.745 288.698 279.095 288.846C279.482 288.956 280.017 288.993 280.718 288.993V289.657H270.022V288.993C270.944 288.993 271.645 288.827 272.087 288.477C272.53 288.145 272.751 287.702 272.751 287.149C272.751 286.669 272.567 286.079 272.235 285.378L270.317 280.952H259.842L257.703 285.895C257.445 286.393 257.334 286.835 257.334 287.223C257.334 288.403 258.256 288.993 260.137 288.993V289.657H252.613V288.993C253.24 288.901 253.756 288.698 254.162 288.403C254.549 288.108 254.9 287.702 255.195 287.149C255.527 286.614 255.951 285.784 256.449 284.641ZM269.727 279.477L265.079 268.928L260.506 279.477H269.727Z" fill="#740405"/>
<path d="M301.831 270.477C301.831 272.063 301.278 273.428 300.208 274.608C299.12 275.752 297.479 276.582 295.266 277.117L301.241 284.567C301.978 285.452 302.587 286.171 303.085 286.706C303.62 287.259 304.265 287.739 305.003 288.182C305.74 288.624 306.552 288.901 307.437 288.993V289.657H300.724L290.913 277.485H288.405V285.895C288.405 287.038 288.663 287.85 289.217 288.329C289.807 288.772 290.71 288.993 291.946 288.993H292.094V289.657H280.733V288.993C281.951 288.993 282.873 288.772 283.463 288.329C284.053 287.886 284.348 287.13 284.348 286.042V267.232C284.348 266.254 284.053 265.535 283.463 265.092C282.873 264.613 281.951 264.355 280.733 264.355V263.691H292.905C295.358 263.691 297.442 264.263 299.175 265.388C300.946 266.476 301.831 268.172 301.831 270.477ZM288.405 265.683V276.231H289.364C291.909 276.231 293.827 275.752 295.118 274.756C296.446 273.723 297.11 272.322 297.11 270.551C297.11 269.039 296.612 267.73 295.634 266.642C294.638 265.572 293.237 265.019 291.43 265.019C290.434 265.019 289.438 265.24 288.405 265.683Z" fill="#740405"/>
<path d="M331.647 282.87V267.306C331.647 266.181 331.444 265.424 331.057 265.019C330.651 264.631 329.914 264.41 328.844 264.355H327.885V263.691H337.475V264.355H336.663C335.631 264.355 334.893 264.429 334.45 264.576C334.045 264.724 333.75 265.056 333.565 265.535C333.418 265.978 333.344 266.715 333.344 267.748V289.952H332.828L314.312 269.076V285.305C314.312 286.688 314.57 287.647 315.123 288.182C315.714 288.735 316.691 288.993 318.074 288.993V289.657H308.706V288.993H308.927C310.144 288.993 311.066 288.772 311.656 288.329C312.283 287.886 312.615 287.075 312.615 285.895V267.379C311.97 266.31 311.232 265.535 310.402 265.092C309.554 264.613 308.558 264.355 307.378 264.355V263.691H314.902L331.647 282.87Z" fill="#740405"/>
<path d="M144.694 344.462C146.058 344.425 146.944 344.056 147.349 343.355C147.737 342.618 147.94 341.548 147.94 340.11V314.734H143.071C141.153 314.734 139.77 315.398 138.94 316.725C138.092 318.016 137.686 320.082 137.686 322.922H135.916L136.211 312.963H163.726L164.021 322.922H162.25C162.195 320.967 161.974 319.381 161.586 318.201C161.236 317.021 160.627 316.135 159.742 315.545C158.894 314.955 157.677 314.66 156.054 314.66H152.071L151.997 340.405C151.997 342.083 151.941 343.319 151.849 344.093L155.833 343.946V346.011H144.694V344.462Z" fill="black"/>
<path d="M167.668 344.462C168.793 344.425 169.586 344.167 170.029 343.724C170.508 343.245 170.785 342.673 170.84 342.028C170.877 341.401 170.914 340.257 170.914 338.634V318.275C170.914 316.947 170.951 315.822 171.061 314.881L167.668 315.029V312.963H178.29V314.512C177.202 314.568 176.409 314.844 175.93 315.324C175.487 315.767 175.211 316.32 175.118 316.947C175.063 317.592 175.045 318.717 175.045 320.34V340.405C175.045 342.083 174.989 343.319 174.897 344.093L178.29 343.946V346.011H167.668V344.462Z" fill="black"/>
<path d="M183.477 344.462C184.602 344.425 185.395 344.167 185.838 343.724C186.317 343.245 186.594 342.673 186.649 342.028C186.686 341.401 186.723 340.257 186.723 338.634V318.275C186.723 316.947 186.76 315.822 186.87 314.881L183.477 315.029V312.963H206.197L206.419 321.225H204.869C204.869 318.68 204.298 316.928 203.173 315.988C202.085 315.01 200.536 314.549 198.526 314.586L194.468 314.734C193.325 314.734 192.495 314.937 191.96 315.324C191.462 315.73 191.149 316.283 191.001 317.021C190.891 317.721 190.854 318.828 190.854 320.34V327.864L199.706 327.938L199.411 323.881H201.476V333.766H199.927C199.927 332.641 199.78 331.774 199.484 331.184C199.189 330.557 198.747 330.133 198.157 329.93C197.603 329.69 196.829 329.561 195.796 329.561L194.321 329.635L190.854 329.782V340.552C190.854 342.23 190.798 343.466 190.706 344.241L199.706 344.093C201.919 344.093 203.615 343.558 204.796 342.47C205.976 341.401 206.566 339.501 206.566 336.79H208.115L207.82 346.011H183.477V344.462Z" fill="black"/>
<path d="M220.061 344.462C221.425 344.425 222.31 344.056 222.716 343.355C223.103 342.618 223.306 341.548 223.306 340.11V314.734H218.438C216.52 314.734 215.137 315.398 214.307 316.725C213.458 318.016 213.053 320.082 213.053 322.922H211.282L211.577 312.963H239.092L239.387 322.922H237.617C237.562 320.967 237.34 319.381 236.953 318.201C236.603 317.021 235.994 316.135 235.109 315.545C234.261 314.955 233.043 314.66 231.421 314.66H227.437L227.363 340.405C227.363 342.083 227.308 343.319 227.216 344.093L231.199 343.946V346.011H220.061V344.462Z" fill="black"/>
</svg>
